<svg width="76" height="72" viewBox="0 0 76 72" fill="none" xmlns="http://www.w3.org/2000/svg">
<path d="M28.9 29.9733V20C28.9 16.32 32.036 13.3333 35.9 13.3333C39.764 13.3333 42.9 16.32 42.9 20V29.9733C46.288 27.8133 48.5 24.16 48.5 20C48.5 13.36 42.872 8 35.9 8C28.928 8 23.3 13.36 23.3 20C23.3 24.16 25.512 27.8133 28.9 29.9733ZM56.452 42.32L43.74 36.2933C43.264 36.1067 42.76 36 42.228 36H40.1V20C40.1 17.7867 38.224 16 35.9 16C33.576 16 31.7 17.7867 31.7 20V48.64C21.62 46.6133 21.788 46.64 21.424 46.64C20.556 46.64 19.772 46.9867 19.212 47.52L17 49.6533L30.832 62.8267C31.588 63.5467 32.652 64 33.8 64H52.812C54.912 64 56.536 62.5333 56.844 60.5867L58.944 46.5333C58.972 46.3467 59 46.16 59 46C59 44.3467 57.936 42.9067 56.452 42.32Z" fill="#A4CE90"/>
</svg>
