<svg width="42" height="38" viewBox="0 0 42 38" fill="none" xmlns="http://www.w3.org/2000/svg">
<path d="M23.0187 31.6438C23.0187 28.7299 23.0187 25.8161 23.0187 22.8196C23.8401 22.8196 24.6276 22.8107 25.4164 22.8246C25.7211 22.8297 25.9381 22.7865 25.987 22.4164C26.1299 21.3493 26.293 20.2847 26.461 19.1324C25.301 19.1324 24.1887 19.1324 23.0563 19.1324C23.0563 18.0653 22.976 17.072 23.0801 16.0977C23.1704 15.2621 23.8852 14.7915 24.822 14.7623C25.3838 14.7445 25.9468 14.7585 26.5651 14.7585C26.5651 13.699 26.5651 12.6739 26.5651 11.5686C24.8458 11.3346 23.1052 11.0128 21.4286 11.8192C19.7231 12.6383 19.0973 14.1632 19.0208 15.9667C18.9782 16.9791 19.0133 17.9954 19.0133 19.0854C17.9574 19.0854 16.9441 19.0854 15.8757 19.0854C15.8757 20.3496 15.8757 21.5388 15.8757 22.803C16.8915 22.803 17.9035 22.803 18.9631 22.803C18.9631 25.8059 18.9631 28.735 18.9631 31.6667C14.0599 31.149 8.11574 26.2078 8.41044 18.5435C8.67379 11.7403 14.4085 6.07414 21.5665 6.3425C28.2605 6.59433 33.8284 12.5594 33.5927 19.383C33.3782 25.61 28.031 31.8282 23.0187 31.6438Z" fill="white"/>
</svg>
