<svg width="42" height="38" viewBox="0 0 42 38" fill="none" xmlns="http://www.w3.org/2000/svg">
<path d="M20.9711 6.33335C27.9408 6.32453 33.5949 11.9848 33.5999 18.9792C33.6062 25.9294 27.9772 31.6616 21.1379 31.6667C14.0653 31.6717 8.40744 26.0845 8.39991 19.0839C8.39238 11.9974 13.9674 6.34218 20.9711 6.33335ZM28.3773 18.9603C28.3773 17.9516 28.3961 16.9428 28.3735 15.9353C28.3208 13.6556 26.6991 11.7503 24.444 11.6103C22.1551 11.4691 19.8448 11.4754 17.5545 11.6066C15.3935 11.7289 13.7354 13.4866 13.6388 15.6642C13.5423 17.8444 13.5322 20.0359 13.6326 22.2148C13.7454 24.6748 15.6481 26.3935 18.0964 26.4099C20.0191 26.4225 21.9418 26.4212 23.8646 26.4111C26.4408 26.3972 28.3409 24.5033 28.376 21.9222C28.3898 20.9349 28.3785 19.9476 28.3773 18.9603Z" fill="white"/>
<path d="M26.9613 19.0007C26.9613 19.9868 26.9726 20.9741 26.9588 21.9601C26.9362 23.6435 25.6556 24.9599 23.9787 24.9813C21.9744 25.0065 19.9702 25.009 17.9659 24.98C16.3517 24.9561 15.0561 23.6674 15.0285 22.0484C14.9947 20.0132 14.9972 17.9756 15.0273 15.9404C15.0511 14.3113 16.3191 13.0189 17.9408 12.9886C19.9865 12.9508 22.0334 12.947 24.079 12.9911C25.692 13.0264 26.9349 14.3529 26.9588 15.9783C26.9738 16.9858 26.9613 17.9932 26.9613 19.0007ZM21.0338 22.6347C23.0543 22.6398 24.6798 21.0422 24.7024 19.031C24.725 16.9858 23.0995 15.3251 21.0689 15.3188C19.0283 15.3125 17.4015 16.9441 17.404 18.9969C17.4065 21.0169 19.0157 22.6297 21.0338 22.6347ZM24.8767 14.2079C24.3826 14.2231 24.0188 14.6102 24.0326 15.107C24.0464 15.6013 24.4315 15.9657 24.9269 15.9518C25.4098 15.9379 25.7948 15.5332 25.781 15.0565C25.766 14.5761 25.3584 14.1928 24.8767 14.2079Z" fill="white"/>
<path d="M23.359 18.9717C23.3665 20.2516 22.3318 21.2981 21.06 21.2981C19.7832 21.2981 18.7309 20.2591 18.7246 18.9919C18.7184 17.7348 19.7769 16.668 21.0399 16.6617C22.3142 16.6554 23.3515 17.6881 23.359 18.9717Z" fill="white"/>
</svg>
