<svg width="100" height="57" viewBox="0 0 100 57" fill="none" xmlns="http://www.w3.org/2000/svg">
<path d="M11.4622 47.0137H16.3247L11.6363 1.55927H9.20503L1.56281 43.8092H0V47.0125H5.03676L4.6896 43.4079L3.47395 43.608L4.86377 31.994L11.6375 31.3938L13.0273 43.608L11.4645 43.808V47.0137H11.4622ZM6.04293 29.498L9.16973 9.13794H10.2112L11.601 29.498H6.04293Z" fill="white"/>
<path d="M20.3819 4.05185H18.3319C17.6399 15.1657 17.4281 24.599 17.3998 31.9741C17.3775 37.8782 17.474 42.7007 20.5713 45.2532C22.892 47.1644 26.4648 47.4456 29.0162 45.9393C32.2289 44.0423 33.1809 39.6857 33.9376 33.1862C34.7437 26.2583 35.3898 16.3813 34.5436 4.05185C33.7987 4.05185 33.0526 4.05185 32.3077 4.05185C32.4913 12.8579 32.2383 20.1565 31.9429 25.4534C31.3015 36.9261 30.3448 41.0626 27.7499 42.2677C25.5399 43.2938 23.1203 41.7369 22.9979 41.6557C20.4254 39.947 19.444 36.0788 19.3639 25.1474C19.3263 19.8882 19.4946 12.6849 20.3819 4.05185Z" fill="white"/>
<path d="M67.5822 52.1094C62.0477 55.1397 55.7447 54.2241 51.7776 49.9064C47.9977 45.7922 47.8 40.1777 47.7835 38.8938C47.6447 38.1076 47.0998 35.5175 45.0051 33.4875C43.101 31.6422 41.0416 31.3492 40.3155 31.2845C42.3043 29.2286 45.2028 25.7052 47.4364 20.4719C49.051 16.6885 49.8076 13.2086 50.1819 10.622C50.8479 6.80678 49.1651 2.98919 46.2207 1.44992C43.5647 0.062461 40.3543 0.773256 38.2313 3.25162C38.0372 6.76559 37.4064 18.0406 36.7262 28.4566C36.4496 32.6861 36.1472 37.092 36.1472 37.092C35.8883 40.852 35.6518 44.1623 35.4529 46.9043C36.379 46.9043 37.3052 46.9043 38.2313 46.9043C38.2313 44.7013 38.2313 42.4983 38.2313 40.2965C38.2313 38.3607 38.2313 36.426 38.2313 34.4901C38.5879 34.3112 39.9448 33.6911 41.5311 34.2901C43.6588 35.0938 44.3978 37.411 44.4837 37.6946C44.6226 40.2518 45.3511 48.3859 50.8515 53.3968C51.8435 54.3006 52.8662 54.989 53.8618 55.5162C55.2657 56.0846 57.9477 56.9343 61.3298 56.5177C64.7155 56.0976 67.8717 52.6436 67.5822 52.1094ZM39.0986 28.8179L40.8356 4.05186C40.9757 3.95771 43.3469 2.41726 45.6982 3.8518C47.5387 4.97448 48.5767 7.43755 48.2331 9.96299C47.82 12.2472 47.1151 15.0492 45.8712 18.0689C43.7894 23.128 41.0792 26.6467 39.0986 28.8179Z" fill="white"/>
<path d="M58.3729 17.7993C58.3717 17.4228 58.407 21.4945 56.4629 24.007C55.8298 24.8249 55.1108 25.3121 54.553 25.6087C55.0873 25.9005 55.8004 26.3924 56.4629 27.2103C58.0152 29.125 58.1752 31.4551 58.1999 32.2165C58.154 31.867 57.8975 29.671 59.2414 27.8117C60.3029 26.343 61.7009 26.0006 62.0999 25.9194C61.4703 25.431 60.543 24.5731 59.7627 23.2068C58.4965 20.9885 58.3741 18.7643 58.3729 17.7993Z" fill="white"/>
<path d="M99.7307 52.24C94.1961 55.2715 87.8931 54.3547 83.9261 50.037C80.1461 45.9229 79.9484 40.3083 79.932 39.0244C79.7931 38.2383 79.2482 35.6481 77.1535 33.6181C75.2494 31.7729 73.19 31.4799 72.4639 31.4151C74.4527 29.3592 77.3512 25.8359 79.5848 20.6026C81.1994 16.8191 81.9561 13.3393 82.3303 10.7526C82.9964 6.93742 81.3135 3.11984 78.3692 1.58057C75.7131 0.193107 72.5027 0.903902 70.3798 3.38227C70.1856 6.89623 69.5548 18.1713 68.8746 28.5872C68.5981 32.8167 68.2956 37.2227 68.2956 37.2227C68.0367 40.9826 67.8002 44.293 67.6013 47.035C68.5275 47.035 69.4536 47.035 70.3798 47.035C70.3798 44.832 70.3798 42.629 70.3798 40.4272C70.3798 38.4913 70.3798 36.5566 70.3798 34.6208C70.7363 34.4419 72.0932 33.8217 73.6796 34.4207C75.8072 35.2245 76.5463 37.5416 76.6322 37.8252C76.771 40.3824 77.4995 48.5166 82.9999 53.5274C83.992 54.4312 85.0146 55.1197 86.0102 55.6469C87.4141 56.2153 90.0961 57.0649 93.4783 56.6483C96.8639 56.2271 100.02 52.7743 99.7307 52.24ZM71.4036 28.8179L73.1394 4.05188C73.2794 3.95773 75.6507 2.41728 78.002 3.85182C79.8425 4.9745 80.8805 7.43757 80.5368 9.96301C80.1238 12.2472 79.4189 15.0492 78.175 18.0689C76.0932 23.128 73.3842 26.6467 71.4036 28.8179Z" fill="white"/>
<path d="M95.1374 46.9032H100L95.3116 1.44882H92.8803L85.2381 43.6988H83.6753V46.902H88.7121L88.3649 43.2975L87.1492 43.4975L88.5391 31.8836L95.3128 31.2834L96.7026 43.4975L95.1398 43.6976V46.9032H95.1374ZM89.9983 28.818L93.1239 8.45792H94.1654L95.5552 28.818H89.9983Z" fill="white"/>
<path d="M61.5494 5.86298C61.1175 5.35813 60.0466 4.10483 58.5579 4.05422C56.9857 4.00127 55.7889 5.3193 55.297 5.86298C49.1634 12.6238 49.4106 27.1551 49.4106 27.1551C49.4106 32.9862 49.6895 43.5869 54.911 46.1053C57.6694 47.4362 60.5008 45.8664 60.7233 45.7381C65.5929 42.9361 66.0495 34.4607 66.412 27.5152C67.111 14.1113 63.0133 7.57525 61.5494 5.86298ZM64.8503 27.0386C64.555 32.4613 64.1831 39.0773 60.2113 41.2662C60.0301 41.3662 57.7212 42.5913 55.4711 41.5534C51.2134 39.5869 50.9863 31.3116 50.9863 26.7585C50.9863 26.7585 50.7851 15.414 55.7865 10.136C56.1878 9.71234 57.1634 8.68263 58.4461 8.72382C59.6594 8.76265 60.5326 9.74058 60.8857 10.136C62.0789 11.4717 65.4199 16.5743 64.8503 27.0386Z" fill="white"/>
</svg>
