<svg width="76" height="72" viewBox="0 0 76 72" fill="none" xmlns="http://www.w3.org/2000/svg">
<path d="M51.326 43.2201H48.6159L47.6553 42.3556C51.0172 38.7055 53.0412 33.9668 53.0412 28.8119C53.0412 17.3173 43.0584 8 30.7428 8C18.4272 8 8.44434 17.3173 8.44434 28.8119C8.44434 40.3065 18.4272 49.6238 30.7428 49.6238C36.2659 49.6238 41.3431 47.7347 45.2539 44.5969L46.1802 45.4934V48.0229L63.3328 64L68.4443 59.2293L51.326 43.2201ZM30.7428 43.2201C22.2008 43.2201 15.3054 36.7844 15.3054 28.8119C15.3054 20.8393 22.2008 14.4037 30.7428 14.4037C39.2848 14.4037 46.1802 20.8393 46.1802 28.8119C46.1802 36.7844 39.2848 43.2201 30.7428 43.2201Z" fill="#A4CE90"/>
</svg>
