<svg width="42" height="38" viewBox="0 0 42 38" fill="none" xmlns="http://www.w3.org/2000/svg">
<path d="M9.14125 31.0634C10.0282 27.9722 10.1581 25.4798 9.14125 22.8065C7.02391 17.24 9.60788 11.0086 14.7812 8.00958C19.8763 5.05671 26.3335 6.08261 30.2957 10.4766C34.3254 14.9466 34.7084 21.4712 31.229 26.3564C27.7603 31.2227 21.3733 33.0818 16.0084 30.5089C14.3766 29.7273 13.1539 30.2573 11.4748 30.5089C10.8949 30.7125 10.2471 30.773 9.14125 31.0634ZM24.4346 26.0253C26.2634 25.9168 27.4717 25.4581 28.1892 24.2286C28.4562 23.77 28.6882 22.8146 28.4724 22.6246C27.558 21.824 26.5304 21.0478 25.411 20.6488C24.9741 20.4941 24.2027 21.406 23.5391 21.748C23.0995 21.976 22.4845 22.3098 22.1177 22.1633C20.235 21.406 18.7677 20.0843 17.7293 18.3283C17.5621 18.0461 17.5081 17.4327 17.6834 17.2563C19.0428 15.8857 18.4521 14.5341 17.7482 13.1662C16.8797 11.4754 15.3881 11.3397 14.2687 12.884C13.1008 14.4961 13.2707 16.1978 14.1285 17.8724C15.6929 20.9338 17.9505 23.333 21.055 24.8203C22.2553 25.3957 23.5715 25.7241 24.4346 26.0253Z" fill="white"/>
</svg>
